<svg width="112" height="106" viewBox="0 0 112 106" fill="none" xmlns="http://www.w3.org/2000/svg">
<path d="M0 52.9561C0 24.109 25.0688 0.729492 56 0.729492C86.9313 0.729492 112 24.109 112 52.9561C112 81.8031 86.9313 105.183 56 105.183C25.0688 105.183 0 81.8031 0 52.9561ZM56 75.8052C58.9094 75.8052 61.25 73.6223 61.25 70.9089V57.8523H75.25C78.1594 57.8523 80.5 55.6694 80.5 52.9561C80.5 50.2427 78.1594 48.0598 75.25 48.0598H61.25V35.0032C61.25 32.2898 58.9094 30.1069 56 30.1069C53.0906 30.1069 50.75 32.2898 50.75 35.0032V48.0598H36.75C33.8406 48.0598 31.5 50.2427 31.5 52.9561C31.5 55.6694 33.8406 57.8523 36.75 57.8523H50.75V70.9089C50.75 73.6223 53.0906 75.8052 56 75.8052Z" fill="#272630"/>
</svg>
