<svg width="28" height="28" viewBox="0 0 28 28" fill="none" xmlns="http://www.w3.org/2000/svg">
<rect width="28" height="28" fill="#CB1E36"/>
<path d="M19.8351 1.05656C21.2023 -0.31052 23.4226 -0.31052 24.7898 1.05656L26.9445 3.21289C28.3117 4.57953 28.3117 6.79765 26.9445 8.16484L24.2977 10.8117L17.1883 3.70343L19.8351 1.05656ZM23.0617 12.0477L10.3086 24.7953C9.73983 25.3641 9.03437 25.7852 8.26327 26.0094L1.68272 27.9453C1.22225 28.082 0.72405 27.9562 0.384441 27.568C0.0448205 27.2781 -0.082153 26.7805 0.0533626 26.3156L1.98897 19.7367C2.21647 18.9656 2.63374 18.2602 3.20304 17.6914L15.9523 4.94046L23.0617 12.0477Z" fill="#272630"/>
</svg>
