<svg width="62" height="50" viewBox="0 0 62 50" fill="none" xmlns="http://www.w3.org/2000/svg">
<path d="M41.1816 47.1289C40.9585 47.0068 40.7386 46.879 40.5219 46.7451L39.7646 47.1839C39.1831 47.5261 38.5217 47.7065 37.8513 47.7065C36.8138 47.7065 35.8043 47.2679 35.0448 46.4614C33.2614 44.4995 31.9167 42.1499 31.1485 39.6353C30.63 37.8716 31.3755 36.0347 32.8758 35.2173L33.6525 34.7613C33.6461 34.5054 33.6461 34.2494 33.6525 33.9938L32.911 33.5582C31.7194 32.8792 31.0316 31.6383 31.0083 30.2984C29.605 29.9121 28.1325 29.6875 26.6116 29.6875H16.7884C7.51847 29.6875 0 37.2754 0 46.6211C0 48.4863 1.5035 50 3.35769 50H40.0384C40.5932 50 41.0944 49.8313 41.5555 49.591C41.3355 49.1043 41.1816 48.5852 41.1816 48.0227V47.1289ZM21.7 25C28.5491 25 34.1 19.4033 34.1 12.5C34.1 5.59668 28.5491 0 21.7 0C14.8509 0 9.3 5.59668 9.3 12.5C9.3 19.4033 14.8509 25 21.7 25ZM59.1422 36.4551C59.3965 35.0879 59.3965 33.6719 59.1422 32.3047L61.6367 30.8398C61.9273 30.6812 62.0605 30.3394 61.9637 30.0098C61.3098 27.9102 60.1957 25.9932 58.7426 24.4062C58.5246 24.1621 58.1613 24.1011 57.8707 24.272L55.3762 25.7251C54.3222 24.8218 53.1112 24.1138 51.8034 23.6499V20.7324C51.8034 20.4028 51.5612 20.1099 51.2464 20.0488C49.0909 19.5605 46.887 19.5728 44.8284 20.0488C44.5136 20.1099 44.2835 20.4028 44.2835 20.7324V23.6504C42.9757 24.1143 41.7647 24.8223 40.7107 25.7256L38.2075 24.2676C37.929 24.0967 37.5657 24.1577 37.3356 24.4019C35.8825 25.9888 34.7684 27.9058 34.1262 30.0054C34.0293 30.335 34.1625 30.6768 34.441 30.8354L36.9355 32.3003C36.6933 33.6675 36.6933 35.0835 36.9355 36.4507L34.441 37.9155C34.1504 38.0742 34.0293 38.416 34.1262 38.7456C34.768 40.8452 35.8825 42.7495 37.3356 44.3491C37.5657 44.5933 37.9169 44.6543 38.2075 44.4834L40.7146 43.0303C41.7686 43.9336 42.9796 44.6416 44.2874 45.1055V48.0234C44.2874 48.353 44.5175 48.646 44.8323 48.707C47.0004 49.1953 49.1917 49.1831 51.2503 48.707C51.5651 48.646 51.8073 48.353 51.8073 48.0234V45.1055C53.1151 44.6416 54.326 43.9336 55.38 43.0303L57.8746 44.4834C58.1531 44.6543 58.5285 44.5933 58.7464 44.3491C60.1996 42.7622 61.3136 40.8452 61.9675 38.7456C62.0644 38.416 61.9312 38.0742 61.6406 37.9155L59.1422 36.4551ZM48.05 39.1113C45.4586 39.1113 43.3516 36.9873 43.3516 34.375C43.3516 31.7627 45.4586 29.6387 48.05 29.6387C50.6414 29.6387 52.7484 31.7627 52.7484 34.375C52.7484 36.9873 50.6462 39.1113 48.05 39.1113Z" fill="#272630"/>
</svg>
