<svg width="51" height="50" viewBox="0 0 51 50" fill="none" xmlns="http://www.w3.org/2000/svg">
<g clip-path="url(#clip0_204_34)">
<path d="M11.1626 0.106201C9.88756 0.321045 8.53287 0.897217 7.45709 1.70776C4.23971 4.12964 3.33326 8.68042 5.39518 12.0593C5.62428 12.4304 5.8235 12.7722 5.84342 12.8015C5.85338 12.8308 5.48483 12.8894 5.02662 12.9285C4.55846 12.9578 3.93092 13.075 3.63209 13.1824C2.58619 13.573 1.69967 14.4421 1.26139 15.5066L1.03229 16.0632L1.0024 28.7C0.992444 37.0593 1.01237 41.5222 1.08209 41.8835C1.31119 43.0945 2.20768 44.2175 3.37311 44.7644L4.02057 45.0671L9.08073 45.0964L14.1309 45.1257V46.7273V48.3386L12.5173 48.3582L10.8936 48.3875L10.8637 49.198L10.8339 49.9988H26.4825H42.1311L42.1012 49.198L42.0714 48.3875L40.4577 48.3582L38.834 48.3386V46.7273V45.1257L43.8942 45.0964L48.9444 45.0671L49.5919 44.7644C50.7573 44.2175 51.6538 43.0945 51.8829 41.8835C51.9526 41.5222 51.9725 37.0593 51.9626 28.7L51.9327 16.0632L51.7036 15.5066C51.2653 14.4421 50.3987 13.5925 49.313 13.1628C48.7551 12.948 48.6555 12.9382 44.213 12.9089L39.6708 12.8796L39.5612 12.2058C39.1827 9.83276 37.1407 8.10425 34.7202 8.10425C32.2798 8.10425 30.2577 9.7937 29.8493 12.1667L29.7298 12.8894H24.4106H19.0915L19.3106 12.5671C19.6692 12.0496 20.2768 10.7312 20.4561 10.1062C20.7151 9.17847 20.7649 7.51831 20.5657 6.53198C19.6792 2.2644 15.4956 -0.596924 11.1626 0.106201ZM14.5294 1.93237C16.1729 2.45972 17.5874 3.67065 18.3444 5.18433C18.8923 6.30737 19.0417 6.91284 19.0417 8.05542C19.0417 9.18823 18.9022 9.7937 18.3444 10.9265C17.9758 11.6785 17.7567 11.9812 17.1292 12.6062C16.4917 13.2214 16.1829 13.4363 15.4159 13.7976C14.2604 14.3445 13.6329 14.491 12.4874 14.4812C9.47916 14.4714 6.88932 12.5183 6.16217 9.70581C5.92311 8.78784 5.90319 7.44019 6.12233 6.54175C6.66022 4.29565 8.6026 2.37183 10.8936 1.81519C11.7702 1.60034 13.6827 1.65894 14.5294 1.93237ZM36.0151 9.95972C36.553 10.1941 37.0012 10.5457 37.3698 11.0339C38.1766 12.1179 38.1467 13.7781 37.3001 14.8718C36.9415 15.321 36.1247 15.8484 35.527 16.0144C34.0926 16.3953 32.469 15.6531 31.7618 14.2957C31.5426 13.8855 31.5128 13.6902 31.5128 12.8894C31.5128 12.0789 31.5526 11.9031 31.7817 11.4734C32.0407 10.9753 32.718 10.2917 33.1663 10.0476C33.9233 9.64722 35.1983 9.60815 36.0151 9.95972ZM8.09459 14.8425C8.68229 15.2332 9.48912 15.5945 10.3159 15.8289C11.1725 16.073 12.9854 16.1804 13.7225 16.0242C14.0214 15.9656 14.2803 15.9265 14.3003 15.946C14.3202 15.9753 14.9676 17.6941 15.7446 19.7644L17.1491 23.5535L16.412 24.198C15.1569 25.3308 14.4796 26.571 14.2206 28.2214C13.7624 31.1707 15.7446 34.2371 18.713 35.1648C19.6393 35.4578 21.1633 35.5164 22.1395 35.3015C24.5899 34.7742 26.5921 32.8113 27.1399 30.4089C27.5483 28.6023 27.0901 26.6003 25.9346 25.1453L25.4964 24.5886L28.9329 20.8875C30.8255 18.8562 32.3893 17.1863 32.3993 17.1863C32.4192 17.1863 32.6383 17.2742 32.8774 17.3816C34.0628 17.8894 35.6067 17.821 36.8817 17.196L37.6587 16.8054L40.0692 18.866C41.384 19.9988 42.4797 20.9363 42.4997 20.9558C42.5196 20.9656 42.4299 21.2488 42.3104 21.5906C41.4438 24.1199 44.0038 26.5125 46.5637 25.575C48.7651 24.7644 49.3727 21.9519 47.6993 20.3113C46.7928 19.4226 45.2788 19.1199 44.1731 19.6082C43.695 19.823 43.6751 19.823 43.4758 19.6472C43.3563 19.5496 42.3503 18.6804 41.2247 17.7234C40.0991 16.7664 39.103 15.907 38.9934 15.8093C38.8141 15.6433 38.8141 15.6335 39.0831 15.0964L39.362 14.5398L44.0137 14.5691L48.6655 14.5984L49.1536 14.8914C49.4524 15.0769 49.7512 15.3699 49.9405 15.6628L50.2393 16.1414L50.2692 27.4109L50.2891 38.6707H26.4825H2.67584V27.5378C2.67584 15.4187 2.64596 16.1121 3.22369 15.3699C3.35319 15.1941 3.70182 14.9402 3.99069 14.8035C4.47877 14.5593 4.58834 14.5496 6.07252 14.5496H7.64635L8.09459 14.8425ZM30.2178 14.8621C30.2876 15.0378 30.4768 15.3601 30.6362 15.575C30.7956 15.7898 30.9549 16.0144 30.9948 16.0828C31.0446 16.1511 29.8991 17.4597 27.9667 19.5496C26.2633 21.3953 24.7194 23.0457 24.5501 23.2214L24.2313 23.5437L23.5839 23.2507C22.269 22.6453 20.6952 22.4597 19.3305 22.7429C18.9919 22.821 18.6831 22.8601 18.6532 22.8308C18.5835 22.7527 15.9239 15.5945 15.9239 15.4675C15.9239 15.4089 16.0534 15.3015 16.2028 15.2429C16.3522 15.1843 16.6809 14.9988 16.92 14.8425L17.3682 14.5496H23.7233H30.0784L30.2178 14.8621ZM46.2151 21.2195C47.1813 21.8542 47.2909 23.1628 46.4442 23.8171C45.3684 24.6472 43.8145 23.9343 43.7946 22.616C43.7747 21.3757 45.1991 20.5457 46.2151 21.2195ZM22.01 24.3738C23.7631 24.8816 25.0381 26.1804 25.5063 27.9285C25.9247 29.5007 25.4266 31.2097 24.1915 32.4207C22.2391 34.3347 19.1911 34.325 17.2487 32.4109C15.6948 30.8777 15.376 28.4558 16.4817 26.6101C16.8403 25.9949 17.6571 25.2039 18.2747 24.8621C19.3604 24.2468 20.8944 24.0515 22.01 24.3738ZM50.2891 41.0144C50.2891 42.0886 49.8708 42.8015 48.9444 43.2898L48.546 43.5046H26.4825H4.41901L4.02057 43.2898C3.0942 42.8015 2.67584 42.0886 2.67584 41.0144V40.3308H26.4825H50.2891V41.0144ZM37.1407 46.7273V48.3386H26.4825H15.8243V46.7273V45.116H26.4825H37.1407V46.7273Z" fill="white"/>
<path d="M37.8516 33.0566V33.8867H42.7822H47.7129V33.0566V32.2266H42.7822H37.8516V33.0566Z" fill="white"/>
<path d="M37.8516 36.2793V37.1094H41.1387H44.4258V36.2793V35.4492H41.1387H37.8516V36.2793Z" fill="white"/>
<path d="M46.0596 35.5762C46.0297 35.6543 46.0197 36.0156 46.0397 36.3867L46.0695 37.0605L46.8963 37.0898L47.7131 37.1191V36.2793V35.4492H46.9162C46.3385 35.4492 46.0994 35.4883 46.0596 35.5762Z" fill="white"/>
</g>
<defs>
<clipPath id="clip0_204_34">
<rect width="51" height="50" fill="white"/>
</clipPath>
</defs>
</svg>
