<svg width="189" height="195" viewBox="0 0 189 195" fill="none" xmlns="http://www.w3.org/2000/svg">
<path d="M138.019 -72.8871L14.5427 -26.4263C3.17691 -22.1497 -2.56981 -9.46933 1.70684 1.89646L68.8168 180.251C73.0919 191.612 85.7738 197.363 97.1396 193.086L220.616 146.626C231.981 142.349 237.728 129.669 233.451 118.303L166.341 -60.0512C162.065 -71.417 149.38 -77.1621 138.019 -72.8871ZM102.092 18.9411C117.248 13.2383 134.153 20.8997 139.856 36.0555C145.559 51.2114 137.897 68.1165 122.741 73.8193C107.586 79.522 90.6724 71.8391 84.9777 56.7048C79.2831 41.5704 86.9578 24.6357 102.092 18.9411ZM184.549 113.211L102.232 144.184C98.4437 145.61 94.2165 143.694 92.7911 139.906C85.6606 120.956 95.2341 99.8315 114.184 92.7011L141.623 82.3765C160.565 75.2493 181.701 84.828 188.828 103.77C190.248 107.542 188.322 111.791 184.549 113.211ZM112.347 -16.2415L71.1883 -0.754589C67.4154 0.665044 63.1734 -1.24318 61.7473 -5.03321C60.3213 -8.82324 62.2531 -13.0545 66.026 -14.4741L107.185 -29.9611C110.957 -31.3807 115.199 -29.4725 116.626 -25.6824C118.052 -21.8924 116.12 -17.6611 112.347 -16.2415Z" fill="white"/>
</svg>
